<mxfile host="app.diagrams.net" modified="2023-05-07T19:01:09.280Z" agent="Mozilla/5.0 (Windows NT 10.0; Win64; x64) AppleWebKit/537.36 (KHTML, like Gecko) Chrome/112.0.0.0 Safari/537.36 Edg/112.0.1722.68" etag="CZg1v0v_kQpMMV-CpIck" version="21.2.3" type="device">
  <diagram name="Page-1" id="2YBvvXClWsGukQMizWep">
    <mxGraphModel dx="2118" dy="1212" grid="1" gridSize="10" guides="1" tooltips="1" connect="1" arrows="1" fold="1" page="1" pageScale="1" pageWidth="1169" pageHeight="1654" math="0" shadow="0">
      <root>
        <mxCell id="0" />
        <mxCell id="1" parent="0" />
        <mxCell id="zK16GCWODctQh5SkANbl-13" style="edgeStyle=orthogonalEdgeStyle;rounded=0;orthogonalLoop=1;jettySize=auto;html=1;exitX=0.25;exitY=1;exitDx=0;exitDy=0;entryX=0;entryY=0.5;entryDx=0;entryDy=0;" edge="1" parent="1" source="zK16GCWODctQh5SkANbl-1" target="zK16GCWODctQh5SkANbl-14">
          <mxGeometry relative="1" as="geometry">
            <mxPoint x="130" y="350" as="targetPoint" />
          </mxGeometry>
        </mxCell>
        <mxCell id="zK16GCWODctQh5SkANbl-16" style="edgeStyle=orthogonalEdgeStyle;rounded=0;orthogonalLoop=1;jettySize=auto;html=1;exitX=0.25;exitY=1;exitDx=0;exitDy=0;entryX=0;entryY=0.5;entryDx=0;entryDy=0;" edge="1" parent="1" source="zK16GCWODctQh5SkANbl-1" target="zK16GCWODctQh5SkANbl-15">
          <mxGeometry relative="1" as="geometry" />
        </mxCell>
        <mxCell id="zK16GCWODctQh5SkANbl-18" style="edgeStyle=orthogonalEdgeStyle;rounded=0;orthogonalLoop=1;jettySize=auto;html=1;exitX=0.25;exitY=1;exitDx=0;exitDy=0;entryX=0;entryY=0.5;entryDx=0;entryDy=0;" edge="1" parent="1" source="zK16GCWODctQh5SkANbl-1" target="zK16GCWODctQh5SkANbl-17">
          <mxGeometry relative="1" as="geometry" />
        </mxCell>
        <mxCell id="zK16GCWODctQh5SkANbl-22" style="edgeStyle=orthogonalEdgeStyle;rounded=0;orthogonalLoop=1;jettySize=auto;html=1;exitX=0.25;exitY=1;exitDx=0;exitDy=0;entryX=0;entryY=0.5;entryDx=0;entryDy=0;" edge="1" parent="1" source="zK16GCWODctQh5SkANbl-1" target="zK16GCWODctQh5SkANbl-21">
          <mxGeometry relative="1" as="geometry" />
        </mxCell>
        <mxCell id="zK16GCWODctQh5SkANbl-29" style="edgeStyle=orthogonalEdgeStyle;rounded=0;orthogonalLoop=1;jettySize=auto;html=1;exitX=0.25;exitY=1;exitDx=0;exitDy=0;entryX=0;entryY=0.5;entryDx=0;entryDy=0;" edge="1" parent="1" source="zK16GCWODctQh5SkANbl-1" target="zK16GCWODctQh5SkANbl-30">
          <mxGeometry relative="1" as="geometry">
            <mxPoint x="137.78260869565224" y="840" as="targetPoint" />
          </mxGeometry>
        </mxCell>
        <mxCell id="zK16GCWODctQh5SkANbl-31" style="edgeStyle=orthogonalEdgeStyle;rounded=0;orthogonalLoop=1;jettySize=auto;html=1;exitX=0.25;exitY=1;exitDx=0;exitDy=0;entryX=0;entryY=0.5;entryDx=0;entryDy=0;" edge="1" parent="1" source="zK16GCWODctQh5SkANbl-1" target="zK16GCWODctQh5SkANbl-32">
          <mxGeometry relative="1" as="geometry">
            <mxPoint x="137.75" y="880" as="targetPoint" />
          </mxGeometry>
        </mxCell>
        <mxCell id="zK16GCWODctQh5SkANbl-1" value="Conceptual Design Phase" style="whiteSpace=wrap;html=1;" vertex="1" parent="1">
          <mxGeometry x="110" y="190" width="110" height="60" as="geometry" />
        </mxCell>
        <mxCell id="zK16GCWODctQh5SkANbl-79" style="edgeStyle=orthogonalEdgeStyle;rounded=0;orthogonalLoop=1;jettySize=auto;html=1;exitX=0.25;exitY=1;exitDx=0;exitDy=0;entryX=0;entryY=0.5;entryDx=0;entryDy=0;" edge="1" parent="1" source="zK16GCWODctQh5SkANbl-2" target="zK16GCWODctQh5SkANbl-78">
          <mxGeometry relative="1" as="geometry" />
        </mxCell>
        <mxCell id="zK16GCWODctQh5SkANbl-80" style="edgeStyle=orthogonalEdgeStyle;rounded=0;orthogonalLoop=1;jettySize=auto;html=1;exitX=0.25;exitY=1;exitDx=0;exitDy=0;entryX=0;entryY=0.5;entryDx=0;entryDy=0;" edge="1" parent="1" source="zK16GCWODctQh5SkANbl-2" target="zK16GCWODctQh5SkANbl-81">
          <mxGeometry relative="1" as="geometry">
            <mxPoint x="515" y="400" as="targetPoint" />
          </mxGeometry>
        </mxCell>
        <mxCell id="zK16GCWODctQh5SkANbl-83" style="edgeStyle=orthogonalEdgeStyle;rounded=0;orthogonalLoop=1;jettySize=auto;html=1;exitX=0.25;exitY=1;exitDx=0;exitDy=0;entryX=0;entryY=0.5;entryDx=0;entryDy=0;" edge="1" parent="1" source="zK16GCWODctQh5SkANbl-2" target="zK16GCWODctQh5SkANbl-82">
          <mxGeometry relative="1" as="geometry" />
        </mxCell>
        <mxCell id="zK16GCWODctQh5SkANbl-85" style="edgeStyle=orthogonalEdgeStyle;rounded=0;orthogonalLoop=1;jettySize=auto;html=1;exitX=0.25;exitY=1;exitDx=0;exitDy=0;entryX=0;entryY=0.5;entryDx=0;entryDy=0;" edge="1" parent="1" source="zK16GCWODctQh5SkANbl-2" target="zK16GCWODctQh5SkANbl-84">
          <mxGeometry relative="1" as="geometry" />
        </mxCell>
        <mxCell id="zK16GCWODctQh5SkANbl-2" value="Preliminary Design&lt;br&gt;Phase" style="whiteSpace=wrap;html=1;" vertex="1" parent="1">
          <mxGeometry x="465" y="190" width="110" height="60" as="geometry" />
        </mxCell>
        <mxCell id="zK16GCWODctQh5SkANbl-4" style="edgeStyle=orthogonalEdgeStyle;rounded=0;orthogonalLoop=1;jettySize=auto;html=1;exitX=0.25;exitY=1;exitDx=0;exitDy=0;entryX=0;entryY=0.5;entryDx=0;entryDy=0;" edge="1" parent="1" source="zK16GCWODctQh5SkANbl-3" target="zK16GCWODctQh5SkANbl-5">
          <mxGeometry relative="1" as="geometry">
            <mxPoint x="870" y="320" as="targetPoint" />
            <Array as="points">
              <mxPoint x="838" y="310" />
            </Array>
          </mxGeometry>
        </mxCell>
        <mxCell id="zK16GCWODctQh5SkANbl-7" style="edgeStyle=orthogonalEdgeStyle;rounded=0;orthogonalLoop=1;jettySize=auto;html=1;exitX=0.25;exitY=1;exitDx=0;exitDy=0;entryX=0;entryY=0.5;entryDx=0;entryDy=0;" edge="1" parent="1" source="zK16GCWODctQh5SkANbl-3" target="zK16GCWODctQh5SkANbl-6">
          <mxGeometry relative="1" as="geometry" />
        </mxCell>
        <mxCell id="zK16GCWODctQh5SkANbl-9" style="edgeStyle=orthogonalEdgeStyle;rounded=0;orthogonalLoop=1;jettySize=auto;html=1;exitX=0.25;exitY=1;exitDx=0;exitDy=0;entryX=0;entryY=0.5;entryDx=0;entryDy=0;" edge="1" parent="1" source="zK16GCWODctQh5SkANbl-3" target="zK16GCWODctQh5SkANbl-8">
          <mxGeometry relative="1" as="geometry" />
        </mxCell>
        <mxCell id="zK16GCWODctQh5SkANbl-11" style="edgeStyle=orthogonalEdgeStyle;rounded=0;orthogonalLoop=1;jettySize=auto;html=1;exitX=0.25;exitY=1;exitDx=0;exitDy=0;entryX=0;entryY=0.5;entryDx=0;entryDy=0;" edge="1" parent="1" source="zK16GCWODctQh5SkANbl-3" target="zK16GCWODctQh5SkANbl-10">
          <mxGeometry relative="1" as="geometry" />
        </mxCell>
        <mxCell id="zK16GCWODctQh5SkANbl-53" style="edgeStyle=orthogonalEdgeStyle;rounded=0;orthogonalLoop=1;jettySize=auto;html=1;exitX=0.25;exitY=1;exitDx=0;exitDy=0;entryX=0;entryY=0.5;entryDx=0;entryDy=0;" edge="1" parent="1" source="zK16GCWODctQh5SkANbl-3" target="zK16GCWODctQh5SkANbl-52">
          <mxGeometry relative="1" as="geometry" />
        </mxCell>
        <mxCell id="zK16GCWODctQh5SkANbl-3" value="Verification and Validation Phase" style="whiteSpace=wrap;html=1;" vertex="1" parent="1">
          <mxGeometry x="810" y="190" width="110" height="60" as="geometry" />
        </mxCell>
        <mxCell id="zK16GCWODctQh5SkANbl-48" style="edgeStyle=orthogonalEdgeStyle;rounded=0;orthogonalLoop=1;jettySize=auto;html=1;exitX=0.25;exitY=1;exitDx=0;exitDy=0;entryX=0;entryY=0.5;entryDx=0;entryDy=0;" edge="1" parent="1" source="zK16GCWODctQh5SkANbl-5" target="zK16GCWODctQh5SkANbl-47">
          <mxGeometry relative="1" as="geometry" />
        </mxCell>
        <mxCell id="zK16GCWODctQh5SkANbl-50" style="edgeStyle=orthogonalEdgeStyle;rounded=0;orthogonalLoop=1;jettySize=auto;html=1;exitX=0.25;exitY=1;exitDx=0;exitDy=0;entryX=0;entryY=0.5;entryDx=0;entryDy=0;" edge="1" parent="1" source="zK16GCWODctQh5SkANbl-5" target="zK16GCWODctQh5SkANbl-49">
          <mxGeometry relative="1" as="geometry" />
        </mxCell>
        <mxCell id="zK16GCWODctQh5SkANbl-5" value="Develop high-fidelity simulation" style="whiteSpace=wrap;html=1;" vertex="1" parent="1">
          <mxGeometry x="870" y="280" width="110" height="60" as="geometry" />
        </mxCell>
        <mxCell id="zK16GCWODctQh5SkANbl-55" style="edgeStyle=orthogonalEdgeStyle;rounded=0;orthogonalLoop=1;jettySize=auto;html=1;exitX=0.25;exitY=1;exitDx=0;exitDy=0;entryX=0;entryY=0.5;entryDx=0;entryDy=0;" edge="1" parent="1" source="zK16GCWODctQh5SkANbl-6" target="zK16GCWODctQh5SkANbl-54">
          <mxGeometry relative="1" as="geometry" />
        </mxCell>
        <mxCell id="zK16GCWODctQh5SkANbl-67" style="edgeStyle=orthogonalEdgeStyle;rounded=0;orthogonalLoop=1;jettySize=auto;html=1;exitX=0.25;exitY=1;exitDx=0;exitDy=0;entryX=0;entryY=0.5;entryDx=0;entryDy=0;" edge="1" parent="1" source="zK16GCWODctQh5SkANbl-6" target="zK16GCWODctQh5SkANbl-66">
          <mxGeometry relative="1" as="geometry" />
        </mxCell>
        <mxCell id="zK16GCWODctQh5SkANbl-71" style="edgeStyle=orthogonalEdgeStyle;rounded=0;orthogonalLoop=1;jettySize=auto;html=1;exitX=0.25;exitY=1;exitDx=0;exitDy=0;entryX=0;entryY=0.5;entryDx=0;entryDy=0;" edge="1" parent="1" source="zK16GCWODctQh5SkANbl-6" target="zK16GCWODctQh5SkANbl-70">
          <mxGeometry relative="1" as="geometry" />
        </mxCell>
        <mxCell id="zK16GCWODctQh5SkANbl-72" style="edgeStyle=orthogonalEdgeStyle;rounded=0;orthogonalLoop=1;jettySize=auto;html=1;exitX=0.25;exitY=1;exitDx=0;exitDy=0;entryX=0;entryY=0.5;entryDx=0;entryDy=0;" edge="1" parent="1" source="zK16GCWODctQh5SkANbl-6" target="zK16GCWODctQh5SkANbl-68">
          <mxGeometry relative="1" as="geometry" />
        </mxCell>
        <mxCell id="zK16GCWODctQh5SkANbl-6" value="Perform model-in-the-loop procedures" style="whiteSpace=wrap;html=1;" vertex="1" parent="1">
          <mxGeometry x="870" y="630" width="110" height="60" as="geometry" />
        </mxCell>
        <mxCell id="zK16GCWODctQh5SkANbl-57" style="edgeStyle=orthogonalEdgeStyle;rounded=0;orthogonalLoop=1;jettySize=auto;html=1;exitX=0.25;exitY=1;exitDx=0;exitDy=0;entryX=0;entryY=0.5;entryDx=0;entryDy=0;" edge="1" parent="1" source="zK16GCWODctQh5SkANbl-8" target="zK16GCWODctQh5SkANbl-56">
          <mxGeometry relative="1" as="geometry" />
        </mxCell>
        <mxCell id="zK16GCWODctQh5SkANbl-77" style="edgeStyle=orthogonalEdgeStyle;rounded=0;orthogonalLoop=1;jettySize=auto;html=1;exitX=0.25;exitY=1;exitDx=0;exitDy=0;entryX=0;entryY=0.5;entryDx=0;entryDy=0;" edge="1" parent="1" source="zK16GCWODctQh5SkANbl-8" target="zK16GCWODctQh5SkANbl-59">
          <mxGeometry relative="1" as="geometry" />
        </mxCell>
        <mxCell id="zK16GCWODctQh5SkANbl-8" value="Develop software/ processor-in-the-loop procedures" style="whiteSpace=wrap;html=1;" vertex="1" parent="1">
          <mxGeometry x="870" y="1060" width="110" height="60" as="geometry" />
        </mxCell>
        <mxCell id="zK16GCWODctQh5SkANbl-63" style="edgeStyle=orthogonalEdgeStyle;rounded=0;orthogonalLoop=1;jettySize=auto;html=1;exitX=0.25;exitY=1;exitDx=0;exitDy=0;entryX=0;entryY=0.5;entryDx=0;entryDy=0;" edge="1" parent="1" source="zK16GCWODctQh5SkANbl-10" target="zK16GCWODctQh5SkANbl-61">
          <mxGeometry relative="1" as="geometry" />
        </mxCell>
        <mxCell id="zK16GCWODctQh5SkANbl-10" value="Develop hardware-in-the-loop procedures" style="whiteSpace=wrap;html=1;" vertex="1" parent="1">
          <mxGeometry x="870" y="1270" width="110" height="60" as="geometry" />
        </mxCell>
        <mxCell id="zK16GCWODctQh5SkANbl-86" style="edgeStyle=orthogonalEdgeStyle;rounded=0;orthogonalLoop=1;jettySize=auto;html=1;exitX=0.5;exitY=1;exitDx=0;exitDy=0;" edge="1" parent="1" source="zK16GCWODctQh5SkANbl-12" target="zK16GCWODctQh5SkANbl-2">
          <mxGeometry relative="1" as="geometry" />
        </mxCell>
        <mxCell id="zK16GCWODctQh5SkANbl-87" style="edgeStyle=orthogonalEdgeStyle;rounded=0;orthogonalLoop=1;jettySize=auto;html=1;exitX=0.5;exitY=1;exitDx=0;exitDy=0;entryX=0.5;entryY=0;entryDx=0;entryDy=0;" edge="1" parent="1" source="zK16GCWODctQh5SkANbl-12" target="zK16GCWODctQh5SkANbl-3">
          <mxGeometry relative="1" as="geometry" />
        </mxCell>
        <mxCell id="zK16GCWODctQh5SkANbl-88" style="edgeStyle=orthogonalEdgeStyle;rounded=0;orthogonalLoop=1;jettySize=auto;html=1;exitX=0.5;exitY=1;exitDx=0;exitDy=0;entryX=0.5;entryY=0;entryDx=0;entryDy=0;" edge="1" parent="1" source="zK16GCWODctQh5SkANbl-12" target="zK16GCWODctQh5SkANbl-1">
          <mxGeometry relative="1" as="geometry" />
        </mxCell>
        <mxCell id="zK16GCWODctQh5SkANbl-12" value="GNC development" style="whiteSpace=wrap;html=1;" vertex="1" parent="1">
          <mxGeometry x="460" y="30" width="120" height="60" as="geometry" />
        </mxCell>
        <mxCell id="zK16GCWODctQh5SkANbl-14" value="Perform literature study" style="whiteSpace=wrap;html=1;" vertex="1" parent="1">
          <mxGeometry x="170" y="280" width="110" height="60" as="geometry" />
        </mxCell>
        <mxCell id="zK16GCWODctQh5SkANbl-15" value="Decide on simulation tools" style="whiteSpace=wrap;html=1;" vertex="1" parent="1">
          <mxGeometry x="170" y="420" width="110" height="60" as="geometry" />
        </mxCell>
        <mxCell id="zK16GCWODctQh5SkANbl-17" value="Create software architecture diagram" style="whiteSpace=wrap;html=1;" vertex="1" parent="1">
          <mxGeometry x="170" y="350" width="110" height="60" as="geometry" />
        </mxCell>
        <mxCell id="zK16GCWODctQh5SkANbl-24" style="edgeStyle=orthogonalEdgeStyle;rounded=0;orthogonalLoop=1;jettySize=auto;html=1;exitX=0.25;exitY=1;exitDx=0;exitDy=0;entryX=0;entryY=0.5;entryDx=0;entryDy=0;" edge="1" parent="1" source="zK16GCWODctQh5SkANbl-21" target="zK16GCWODctQh5SkANbl-23">
          <mxGeometry relative="1" as="geometry" />
        </mxCell>
        <mxCell id="zK16GCWODctQh5SkANbl-26" style="edgeStyle=orthogonalEdgeStyle;rounded=0;orthogonalLoop=1;jettySize=auto;html=1;exitX=0.25;exitY=1;exitDx=0;exitDy=0;entryX=0;entryY=0.5;entryDx=0;entryDy=0;" edge="1" parent="1" source="zK16GCWODctQh5SkANbl-21" target="zK16GCWODctQh5SkANbl-25">
          <mxGeometry relative="1" as="geometry" />
        </mxCell>
        <mxCell id="zK16GCWODctQh5SkANbl-28" style="edgeStyle=orthogonalEdgeStyle;rounded=0;orthogonalLoop=1;jettySize=auto;html=1;exitX=0.25;exitY=1;exitDx=0;exitDy=0;entryX=0;entryY=0.5;entryDx=0;entryDy=0;" edge="1" parent="1" source="zK16GCWODctQh5SkANbl-21" target="zK16GCWODctQh5SkANbl-27">
          <mxGeometry relative="1" as="geometry" />
        </mxCell>
        <mxCell id="zK16GCWODctQh5SkANbl-21" value="Model system" style="whiteSpace=wrap;html=1;" vertex="1" parent="1">
          <mxGeometry x="170" y="560" width="110" height="60" as="geometry" />
        </mxCell>
        <mxCell id="zK16GCWODctQh5SkANbl-23" value="Derive mathematical model of system" style="whiteSpace=wrap;html=1;" vertex="1" parent="1">
          <mxGeometry x="230" y="630" width="110" height="60" as="geometry" />
        </mxCell>
        <mxCell id="zK16GCWODctQh5SkANbl-25" value="Implement kinematics and dynamics equations" style="whiteSpace=wrap;html=1;" vertex="1" parent="1">
          <mxGeometry x="230" y="700" width="110" height="60" as="geometry" />
        </mxCell>
        <mxCell id="zK16GCWODctQh5SkANbl-27" value="Obtain non-linear equations of motion" style="whiteSpace=wrap;html=1;" vertex="1" parent="1">
          <mxGeometry x="230" y="770" width="110" height="60" as="geometry" />
        </mxCell>
        <mxCell id="zK16GCWODctQh5SkANbl-30" value="Linearize equations of motion" style="whiteSpace=wrap;html=1;" vertex="1" parent="1">
          <mxGeometry x="170" y="840" width="110" height="60" as="geometry" />
        </mxCell>
        <mxCell id="zK16GCWODctQh5SkANbl-38" style="edgeStyle=orthogonalEdgeStyle;rounded=0;orthogonalLoop=1;jettySize=auto;html=1;exitX=0.25;exitY=1;exitDx=0;exitDy=0;entryX=0;entryY=0.5;entryDx=0;entryDy=0;" edge="1" parent="1" source="zK16GCWODctQh5SkANbl-32" target="zK16GCWODctQh5SkANbl-33">
          <mxGeometry relative="1" as="geometry" />
        </mxCell>
        <mxCell id="zK16GCWODctQh5SkANbl-39" style="edgeStyle=orthogonalEdgeStyle;rounded=0;orthogonalLoop=1;jettySize=auto;html=1;exitX=0.25;exitY=1;exitDx=0;exitDy=0;entryX=0;entryY=0.5;entryDx=0;entryDy=0;" edge="1" parent="1" source="zK16GCWODctQh5SkANbl-32" target="zK16GCWODctQh5SkANbl-34">
          <mxGeometry relative="1" as="geometry" />
        </mxCell>
        <mxCell id="zK16GCWODctQh5SkANbl-32" value="Analyze system characteristics" style="whiteSpace=wrap;html=1;" vertex="1" parent="1">
          <mxGeometry x="170" y="910" width="120" height="60" as="geometry" />
        </mxCell>
        <mxCell id="zK16GCWODctQh5SkANbl-41" style="edgeStyle=orthogonalEdgeStyle;rounded=0;orthogonalLoop=1;jettySize=auto;html=1;exitX=0.25;exitY=1;exitDx=0;exitDy=0;entryX=0;entryY=0.5;entryDx=0;entryDy=0;" edge="1" parent="1" source="zK16GCWODctQh5SkANbl-33" target="zK16GCWODctQh5SkANbl-40">
          <mxGeometry relative="1" as="geometry" />
        </mxCell>
        <mxCell id="zK16GCWODctQh5SkANbl-33" value="Analyze stability characteristics" style="whiteSpace=wrap;html=1;" vertex="1" parent="1">
          <mxGeometry x="230" y="980" width="120" height="60" as="geometry" />
        </mxCell>
        <mxCell id="zK16GCWODctQh5SkANbl-45" style="edgeStyle=orthogonalEdgeStyle;rounded=0;orthogonalLoop=1;jettySize=auto;html=1;exitX=0.25;exitY=1;exitDx=0;exitDy=0;entryX=0;entryY=0.5;entryDx=0;entryDy=0;" edge="1" parent="1" source="zK16GCWODctQh5SkANbl-34" target="zK16GCWODctQh5SkANbl-44">
          <mxGeometry relative="1" as="geometry" />
        </mxCell>
        <mxCell id="zK16GCWODctQh5SkANbl-34" value="Analyze performance robustness characteristics" style="whiteSpace=wrap;html=1;" vertex="1" parent="1">
          <mxGeometry x="230" y="1120" width="120" height="60" as="geometry" />
        </mxCell>
        <mxCell id="zK16GCWODctQh5SkANbl-40" value="Perform frequency-domain analysis" style="whiteSpace=wrap;html=1;" vertex="1" parent="1">
          <mxGeometry x="290" y="1050" width="120" height="60" as="geometry" />
        </mxCell>
        <mxCell id="zK16GCWODctQh5SkANbl-44" value="Perform structured singular values analysis" style="whiteSpace=wrap;html=1;" vertex="1" parent="1">
          <mxGeometry x="290" y="1190" width="120" height="60" as="geometry" />
        </mxCell>
        <mxCell id="zK16GCWODctQh5SkANbl-46" value="Conceptual design pahse: literature study, establishing basic tools, architecture and models, and characterization of system&lt;br&gt;Preliminary design phase: control law design, guidance algorithm design, navigation design&lt;br&gt;Verification and validation: verification and validation of the GNC" style="rounded=0;whiteSpace=wrap;html=1;align=left;" vertex="1" parent="1">
          <mxGeometry x="245" y="1440" width="680" height="60" as="geometry" />
        </mxCell>
        <mxCell id="zK16GCWODctQh5SkANbl-47" value="Model sensors" style="whiteSpace=wrap;html=1;" vertex="1" parent="1">
          <mxGeometry x="930" y="350" width="120" height="60" as="geometry" />
        </mxCell>
        <mxCell id="zK16GCWODctQh5SkANbl-49" value="Create simulation environment" style="whiteSpace=wrap;html=1;" vertex="1" parent="1">
          <mxGeometry x="930" y="420" width="120" height="60" as="geometry" />
        </mxCell>
        <mxCell id="zK16GCWODctQh5SkANbl-51" value="Create UAS simulation model" style="whiteSpace=wrap;html=1;" vertex="1" parent="1">
          <mxGeometry x="930" y="490" width="120" height="60" as="geometry" />
        </mxCell>
        <mxCell id="zK16GCWODctQh5SkANbl-52" value="Re-evaluate control law" style="whiteSpace=wrap;html=1;" vertex="1" parent="1">
          <mxGeometry x="870" y="560" width="110" height="60" as="geometry" />
        </mxCell>
        <mxCell id="zK16GCWODctQh5SkANbl-75" style="edgeStyle=orthogonalEdgeStyle;rounded=0;orthogonalLoop=1;jettySize=auto;html=1;exitX=0.25;exitY=1;exitDx=0;exitDy=0;entryX=0;entryY=0.5;entryDx=0;entryDy=0;" edge="1" parent="1" source="zK16GCWODctQh5SkANbl-54" target="zK16GCWODctQh5SkANbl-74">
          <mxGeometry relative="1" as="geometry">
            <Array as="points">
              <mxPoint x="960" y="785" />
            </Array>
          </mxGeometry>
        </mxCell>
        <mxCell id="zK16GCWODctQh5SkANbl-76" style="edgeStyle=orthogonalEdgeStyle;rounded=0;orthogonalLoop=1;jettySize=auto;html=1;exitX=0.25;exitY=1;exitDx=0;exitDy=0;entryX=0;entryY=0.5;entryDx=0;entryDy=0;" edge="1" parent="1" source="zK16GCWODctQh5SkANbl-54" target="zK16GCWODctQh5SkANbl-64">
          <mxGeometry relative="1" as="geometry">
            <Array as="points">
              <mxPoint x="960" y="825" />
            </Array>
          </mxGeometry>
        </mxCell>
        <mxCell id="zK16GCWODctQh5SkANbl-54" value="Perform algorithm verification" style="whiteSpace=wrap;html=1;" vertex="1" parent="1">
          <mxGeometry x="930" y="700" width="120" height="60" as="geometry" />
        </mxCell>
        <mxCell id="zK16GCWODctQh5SkANbl-56" value="Obtain embedded-like code through auto-generated C-code" style="whiteSpace=wrap;html=1;" vertex="1" parent="1">
          <mxGeometry x="930" y="1130" width="120" height="60" as="geometry" />
        </mxCell>
        <mxCell id="zK16GCWODctQh5SkANbl-59" value="Embed code on dedicated processor" style="whiteSpace=wrap;html=1;" vertex="1" parent="1">
          <mxGeometry x="930" y="1200" width="120" height="60" as="geometry" />
        </mxCell>
        <mxCell id="zK16GCWODctQh5SkANbl-61" value="Perform validation on qualification model" style="whiteSpace=wrap;html=1;" vertex="1" parent="1">
          <mxGeometry x="930" y="1340" width="120" height="60" as="geometry" />
        </mxCell>
        <mxCell id="zK16GCWODctQh5SkANbl-64" value="Perform worst-case analysis" style="whiteSpace=wrap;html=1;" vertex="1" parent="1">
          <mxGeometry x="990" y="810" width="110" height="30" as="geometry" />
        </mxCell>
        <mxCell id="zK16GCWODctQh5SkANbl-66" value="Perform models profiling" style="whiteSpace=wrap;html=1;" vertex="1" parent="1">
          <mxGeometry x="930" y="920" width="120" height="60" as="geometry" />
        </mxCell>
        <mxCell id="zK16GCWODctQh5SkANbl-68" value="Perform requirements verification" style="whiteSpace=wrap;html=1;" vertex="1" parent="1">
          <mxGeometry x="930" y="850" width="120" height="60" as="geometry" />
        </mxCell>
        <mxCell id="zK16GCWODctQh5SkANbl-69" value="Establish modeling standards" style="whiteSpace=wrap;html=1;" vertex="1" parent="1">
          <mxGeometry x="170" y="490" width="110" height="60" as="geometry" />
        </mxCell>
        <mxCell id="zK16GCWODctQh5SkANbl-70" value="Perform model coverage verification" style="whiteSpace=wrap;html=1;" vertex="1" parent="1">
          <mxGeometry x="930" y="990" width="120" height="60" as="geometry" />
        </mxCell>
        <mxCell id="zK16GCWODctQh5SkANbl-74" value="Perform Monte Carlo simulations" style="rounded=0;whiteSpace=wrap;html=1;" vertex="1" parent="1">
          <mxGeometry x="990" y="770" width="110" height="30" as="geometry" />
        </mxCell>
        <mxCell id="zK16GCWODctQh5SkANbl-78" value="Perform literature study" style="whiteSpace=wrap;html=1;" vertex="1" parent="1">
          <mxGeometry x="525" y="280" width="110" height="60" as="geometry" />
        </mxCell>
        <mxCell id="zK16GCWODctQh5SkANbl-81" value="Design guidance algorithm" style="whiteSpace=wrap;html=1;" vertex="1" parent="1">
          <mxGeometry x="525" y="350" width="110" height="60" as="geometry" />
        </mxCell>
        <mxCell id="zK16GCWODctQh5SkANbl-82" value="Design navigation algorithm" style="whiteSpace=wrap;html=1;" vertex="1" parent="1">
          <mxGeometry x="525" y="420" width="110" height="60" as="geometry" />
        </mxCell>
        <mxCell id="zK16GCWODctQh5SkANbl-93" style="edgeStyle=orthogonalEdgeStyle;rounded=0;orthogonalLoop=1;jettySize=auto;html=1;exitX=0.25;exitY=1;exitDx=0;exitDy=0;entryX=0;entryY=0.5;entryDx=0;entryDy=0;" edge="1" parent="1" source="zK16GCWODctQh5SkANbl-84" target="zK16GCWODctQh5SkANbl-92">
          <mxGeometry relative="1" as="geometry" />
        </mxCell>
        <mxCell id="zK16GCWODctQh5SkANbl-96" style="edgeStyle=orthogonalEdgeStyle;rounded=0;orthogonalLoop=1;jettySize=auto;html=1;exitX=0.25;exitY=1;exitDx=0;exitDy=0;entryX=0;entryY=0.5;entryDx=0;entryDy=0;" edge="1" parent="1" source="zK16GCWODctQh5SkANbl-84" target="zK16GCWODctQh5SkANbl-94">
          <mxGeometry relative="1" as="geometry" />
        </mxCell>
        <mxCell id="zK16GCWODctQh5SkANbl-84" value="Design control algorithm" style="whiteSpace=wrap;html=1;" vertex="1" parent="1">
          <mxGeometry x="525" y="490" width="110" height="60" as="geometry" />
        </mxCell>
        <mxCell id="zK16GCWODctQh5SkANbl-92" value="Design attitude control" style="whiteSpace=wrap;html=1;" vertex="1" parent="1">
          <mxGeometry x="585" y="560" width="110" height="60" as="geometry" />
        </mxCell>
        <mxCell id="zK16GCWODctQh5SkANbl-94" value="Design position control" style="whiteSpace=wrap;html=1;" vertex="1" parent="1">
          <mxGeometry x="585" y="630" width="110" height="60" as="geometry" />
        </mxCell>
      </root>
    </mxGraphModel>
  </diagram>
</mxfile>
